<mxfile host="app.diagrams.net" modified="2023-01-05T01:48:02.726Z" agent="5.0 (Macintosh; Intel Mac OS X 10_15_7) AppleWebKit/537.36 (KHTML, like Gecko) Chrome/108.0.0.0 Safari/537.36" etag="_316IZRHFh7af0r4D7b8" version="20.8.1" type="github">
  <diagram id="Nt4GldiQhaJvt-aMLipy" name="第 1 页">
    <mxGraphModel dx="1434" dy="770" grid="0" gridSize="10" guides="1" tooltips="1" connect="1" arrows="1" fold="1" page="1" pageScale="1" pageWidth="827" pageHeight="1169" background="#ffffff" math="0" shadow="0">
      <root>
        <mxCell id="0" />
        <mxCell id="1" parent="0" />
        <mxCell id="1PG7a3TGv3jrzEdtChJA-1" value="&lt;div style=&quot;text-align: left;&quot;&gt;&lt;span style=&quot;background-color: rgb(255, 255, 255); font-weight: 700;&quot;&gt;酒店：&lt;/span&gt;&lt;/div&gt;&lt;span style=&quot;font-weight: 700; background-color: rgb(255, 255, 255);&quot;&gt;&lt;div style=&quot;text-align: left;&quot;&gt;重庆山酒店&lt;/div&gt;&lt;/span&gt;&lt;span style=&quot;font-weight: 700; background-color: rgb(255, 255, 255);&quot;&gt;&lt;div style=&quot;text-align: left;&quot;&gt;简影·云境高空汤池酒店&lt;/div&gt;&lt;/span&gt;&lt;span style=&quot;font-weight: 700; background-color: rgb(255, 255, 255);&quot;&gt;&lt;div style=&quot;text-align: left;&quot;&gt;H·su酒店(重庆解放碑洪崖洞店)&lt;/div&gt;&lt;div style=&quot;text-align: left;&quot;&gt;丽枫酒店（差评有点多）&lt;/div&gt;&lt;/span&gt;" style="text;strokeColor=none;align=center;fillColor=none;html=1;verticalAlign=middle;whiteSpace=wrap;rounded=0;sketch=1;hachureGap=4;jiggle=2;curveFitting=1;fontFamily=Zhi Mang Xing;fontSource=https%3A%2F%2Ffonts.googleapis.com%2Fcss%3Ffamily%3DZhi%2BMang%2BXing;fontSize=20;fontColor=#148AFF;" parent="1" vertex="1">
          <mxGeometry x="100" y="110" width="250" height="130" as="geometry" />
        </mxCell>
        <mxCell id="1PG7a3TGv3jrzEdtChJA-2" value="&lt;div style=&quot;text-align: left;&quot;&gt;&lt;span style=&quot;background-color: rgb(255, 255, 255); color: rgb(15, 41, 77); font-weight: 700;&quot;&gt;药品：&lt;/span&gt;&lt;/div&gt;&lt;div style=&quot;text-align: left;&quot;&gt;&lt;span style=&quot;background-color: rgb(255, 255, 255); color: rgb(15, 41, 77); font-weight: 700;&quot;&gt;口罩&lt;/span&gt;&lt;/div&gt;&lt;span style=&quot;color: rgb(15, 41, 77); font-weight: 700; background-color: rgb(255, 255, 255);&quot;&gt;&lt;div style=&quot;text-align: left;&quot;&gt;胃药&lt;/div&gt;&lt;div style=&quot;text-align: left;&quot;&gt;感冒药&lt;/div&gt;&lt;div style=&quot;text-align: left;&quot;&gt;过敏药&lt;/div&gt;&lt;div style=&quot;text-align: left;&quot;&gt;小柴胡或者板蓝根&lt;/div&gt;&lt;div style=&quot;text-align: left;&quot;&gt;贝洛芬&lt;/div&gt;&lt;div style=&quot;text-align: left;&quot;&gt;当地购买酒精喷雾&lt;/div&gt;&lt;/span&gt;" style="text;strokeColor=none;align=center;fillColor=none;html=1;verticalAlign=middle;whiteSpace=wrap;rounded=0;sketch=1;hachureGap=4;jiggle=2;curveFitting=1;fontFamily=Zhi Mang Xing;fontSource=https%3A%2F%2Ffonts.googleapis.com%2Fcss%3Ffamily%3DZhi%2BMang%2BXing;fontSize=20;" parent="1" vertex="1">
          <mxGeometry x="100" y="250" width="160" height="190" as="geometry" />
        </mxCell>
        <mxCell id="1PG7a3TGv3jrzEdtChJA-3" value="&lt;div style=&quot;text-align: left;&quot;&gt;&lt;span style=&quot;background-color: rgb(255, 255, 255); font-weight: 700;&quot;&gt;&lt;font color=&quot;#ff33bb&quot;&gt;携带用品：&lt;/font&gt;&lt;/span&gt;&lt;/div&gt;&lt;div style=&quot;text-align: left;&quot;&gt;&lt;span style=&quot;background-color: rgb(255, 255, 255); font-weight: 700;&quot;&gt;&lt;font color=&quot;#ff0000&quot;&gt;身份证（必带）&lt;/font&gt;&lt;/span&gt;&lt;/div&gt;&lt;span style=&quot;font-weight: 700; background-color: rgb(255, 255, 255);&quot;&gt;&lt;font color=&quot;#ff33bb&quot;&gt;&lt;div style=&quot;text-align: left;&quot;&gt;牙刷毛巾建议自带&lt;/div&gt;&lt;div style=&quot;text-align: left;&quot;&gt;温度大约5～15度，适量携带保暖衣服&lt;/div&gt;&lt;div style=&quot;text-align: left;&quot;&gt;鞋子建议运动鞋，板鞋不太建议&lt;/div&gt;&lt;div style=&quot;text-align: left;&quot;&gt;衣服建议休闲&lt;/div&gt;&lt;/font&gt;&lt;/span&gt;" style="text;strokeColor=none;align=center;fillColor=none;html=1;verticalAlign=middle;whiteSpace=wrap;rounded=0;sketch=1;hachureGap=4;jiggle=2;curveFitting=1;fontFamily=Zhi Mang Xing;fontSource=https%3A%2F%2Ffonts.googleapis.com%2Fcss%3Ffamily%3DZhi%2BMang%2BXing;fontSize=20;" parent="1" vertex="1">
          <mxGeometry x="100" y="455" width="300" height="140" as="geometry" />
        </mxCell>
        <mxCell id="Jjh6-_cO4B_dSRI2ysjl-1" style="edgeStyle=orthogonalEdgeStyle;rounded=0;orthogonalLoop=1;jettySize=auto;html=1;exitX=1;exitY=1;exitDx=0;exitDy=0;fontFamily=Zhi Mang Xing;fontSource=https%3A%2F%2Ffonts.googleapis.com%2Fcss%3Ffamily%3DZhi%2BMang%2BXing;" edge="1" parent="1" source="1PG7a3TGv3jrzEdtChJA-4">
          <mxGeometry relative="1" as="geometry">
            <mxPoint x="400" y="730" as="targetPoint" />
          </mxGeometry>
        </mxCell>
        <mxCell id="1PG7a3TGv3jrzEdtChJA-4" value="&lt;div style=&quot;text-align: left;&quot;&gt;&lt;span style=&quot;background-color: rgb(255, 255, 255);&quot;&gt;&lt;b style=&quot;&quot;&gt;&lt;font color=&quot;#ff5c92&quot;&gt;费用预估：&lt;/font&gt;&lt;/b&gt;&lt;/span&gt;&lt;/div&gt;&lt;div style=&quot;text-align: left;&quot;&gt;&lt;span style=&quot;background-color: rgb(255, 255, 255);&quot;&gt;&lt;b&gt;&lt;font color=&quot;#ff5c92&quot;&gt;机票：来回2000左右&lt;/font&gt;&lt;/b&gt;&lt;/span&gt;&lt;/div&gt;&lt;div style=&quot;text-align: left;&quot;&gt;&lt;span style=&quot;background-color: rgb(255, 255, 255);&quot;&gt;&lt;b&gt;&lt;font color=&quot;#ff5c92&quot;&gt;住宿：4-5天1000左右&lt;/font&gt;&lt;/b&gt;&lt;/span&gt;&lt;/div&gt;&lt;div style=&quot;text-align: left;&quot;&gt;&lt;br&gt;&lt;/div&gt;&lt;div style=&quot;text-align: left;&quot;&gt;&lt;span style=&quot;background-color: rgb(255, 255, 255);&quot;&gt;&lt;b&gt;&lt;font color=&quot;#ff5c92&quot;&gt;简单玩大概总的在3000左右&lt;/font&gt;&lt;/b&gt;&lt;/span&gt;&lt;/div&gt;&lt;div style=&quot;text-align: left;&quot;&gt;&lt;font color=&quot;#ff33bb&quot;&gt;&lt;span style=&quot;background-color: rgb(255, 255, 255);&quot;&gt;&lt;b&gt;&lt;br&gt;&lt;/b&gt;&lt;/span&gt;&lt;/font&gt;&lt;/div&gt;" style="text;strokeColor=none;align=center;fillColor=none;html=1;verticalAlign=middle;whiteSpace=wrap;rounded=0;sketch=1;hachureGap=4;jiggle=2;curveFitting=1;fontFamily=Zhi Mang Xing;fontSource=https%3A%2F%2Ffonts.googleapis.com%2Fcss%3Ffamily%3DZhi%2BMang%2BXing;fontSize=20;" parent="1" vertex="1">
          <mxGeometry x="100" y="610" width="220" height="140" as="geometry" />
        </mxCell>
      </root>
    </mxGraphModel>
  </diagram>
</mxfile>
